<svg width="25" height="25" viewBox="0 0 25 25" fill="none" xmlns="http://www.w3.org/2000/svg">
<g id="akar-icons:check-box-fill">
<path id="Vector" fill-rule="evenodd" clip-rule="evenodd" d="M7.25385 2.95105C5.92776 2.95105 4.65599 3.47783 3.71831 4.41552C2.78063 5.3532 2.25385 6.62497 2.25385 7.95105V17.951C2.25385 19.2771 2.78063 20.5489 3.71831 21.4866C4.65599 22.4243 5.92776 22.951 7.25385 22.951H17.2538C18.5799 22.951 19.8517 22.4243 20.7894 21.4866C21.7271 20.5489 22.2538 19.2771 22.2538 17.951V7.95105C22.2538 6.62497 21.7271 5.3532 20.7894 4.41552C19.8517 3.47783 18.5799 2.95105 17.2538 2.95105H7.25385ZM15.9838 11.635C16.0737 11.5392 16.1437 11.4266 16.19 11.3036C16.2363 11.1807 16.258 11.0498 16.2537 10.9185C16.2494 10.7872 16.2193 10.658 16.1651 10.5384C16.1109 10.4187 16.0337 10.3109 15.9378 10.2211C15.842 10.1312 15.7294 10.0612 15.6064 10.0149C15.4835 9.96856 15.3526 9.94693 15.2213 9.9512C15.09 9.95547 14.9608 9.98556 14.8412 10.0398C14.7215 10.094 14.6137 10.1712 14.5238 10.267L11.4408 13.557L9.91784 12.2041C9.7183 12.0382 9.4621 11.9563 9.20334 11.9759C8.94459 11.9954 8.70356 12.1147 8.53117 12.3087C8.35877 12.5026 8.26852 12.756 8.27947 13.0152C8.29042 13.2745 8.40171 13.5193 8.58985 13.698L10.8398 15.698C11.0345 15.871 11.289 15.9612 11.5491 15.9494C11.8093 15.9376 12.0546 15.8249 12.2328 15.635L15.9838 11.635Z" fill="#000573"/>
</g>
</svg>
