<svg width="138" height="33" viewBox="0 0 138 33" fill="none" xmlns="http://www.w3.org/2000/svg">
<path d="M16.3069 21.3821L11.6743 7.09586L7.12104 21.3821H16.3069ZM3.70612 32.0104H0C0.158834 31.6071 0.326491 31.1943 0.502973 30.7718C0.661807 30.3302 0.847113 29.8405 1.05889 29.3029C1.25302 28.7652 1.47362 28.1412 1.7207 27.4307C1.95012 26.7394 2.22367 25.9329 2.54134 25.0113L9.76827 3.26508H13.6597L20.9131 25.0113C21.2131 25.9329 21.4867 26.7394 21.7337 27.4307C21.9632 28.1412 22.1838 28.7652 22.3955 29.3029C22.6073 29.8405 22.7926 30.3302 22.9515 30.7718C23.1279 31.1943 23.2956 31.6071 23.4544 32.0104H19.7218L17.2599 24.4352H6.14157L3.70612 32.0104ZM30.4961 32.0104H27.1606V9.77453C27.1606 7.64311 27.1429 5.78053 27.1076 4.18677C27.09 2.59301 27.0105 1.36409 26.8694 0.5H30.4961V20.1724L37.8289 11.9347H42.3556L33.408 20.7196L42.8851 32.0104H38.4642L30.4961 21.7853V32.0104ZM46.0618 5.5405C46.0618 5.15647 46.1147 4.81083 46.2206 4.5036C46.3265 4.17717 46.4853 3.88914 46.6971 3.63951C46.8912 3.40909 47.1295 3.21707 47.4119 3.06346C47.6766 2.92904 47.9854 2.86184 48.3384 2.86184C48.6737 2.86184 48.9825 2.92904 49.2649 3.06346C49.5473 3.21707 49.7944 3.40909 50.0061 3.63951C50.2179 3.88914 50.3856 4.17717 50.5091 4.5036C50.615 4.81083 50.6679 5.15647 50.6679 5.5405C50.6679 5.90534 50.615 6.24137 50.5091 6.5486C50.3856 6.87504 50.2179 7.16307 50.0061 7.41269C49.7944 7.64311 49.5473 7.83513 49.2649 7.98875C48.9825 8.12316 48.6737 8.19037 48.3384 8.19037C47.9854 8.19037 47.6766 8.12316 47.4119 7.98875C47.1295 7.83513 46.8912 7.64311 46.6971 7.41269C46.4853 7.16307 46.3265 6.87504 46.2206 6.5486C46.1147 6.24137 46.0618 5.90534 46.0618 5.5405ZM50.0326 11.9347V22.6494C50.0326 23.2831 50.0503 24.032 50.0856 24.896C50.1032 25.7601 50.1208 26.6242 50.1385 27.4883C50.1738 28.3716 50.2091 29.2165 50.2444 30.023C50.2973 30.8294 50.3503 31.4919 50.4032 32.0104H46.6971V21.5837C46.6971 20.6236 46.6971 19.6731 46.6971 18.7322C46.6795 17.8105 46.6618 16.9272 46.6442 16.0824C46.6265 15.2567 46.6 14.4886 46.5647 13.7781C46.5294 13.0485 46.4853 12.434 46.4324 11.9347H50.0326ZM72.4811 32.0104H69.1456V21.1805C69.1456 19.9515 69.0662 18.9338 68.9073 18.1274C68.7662 17.3209 68.5456 16.6872 68.2455 16.2264C67.9455 15.7655 67.5661 15.4391 67.1072 15.2471C66.666 15.0743 66.1366 14.9878 65.5189 14.9878C64.8659 14.9878 64.2306 15.1511 63.6129 15.4775C62.9952 15.8231 62.4216 16.2552 61.8922 16.7736C61.3804 17.3113 60.9215 17.9161 60.5156 18.5882C60.1274 19.2603 59.8362 19.9323 59.642 20.6044V32.0104H56.2801V19.9131C56.2801 17.9545 56.183 16.3032 55.9889 14.959C55.7947 13.6149 55.5918 12.6068 55.38 11.9347H58.6361C58.7067 12.146 58.7773 12.4148 58.8479 12.7412C58.9185 13.0869 58.9891 13.4421 59.0597 13.8069C59.1126 14.1718 59.1655 14.527 59.2185 14.8726L59.3773 15.7655C60.5068 14.2678 61.6628 13.1925 62.8452 12.5396C64.01 11.8675 65.2365 11.5315 66.5248 11.5315C68.4485 11.5315 69.9221 12.2132 70.9457 13.5765C71.9693 14.959 72.4811 17.004 72.4811 19.7115V32.0104ZM75.5519 3.26508H79.7345L86.882 16.284L93.6589 3.26508H97.8151C97.2856 4.09076 96.8179 4.83963 96.412 5.5117C96.0061 6.18377 95.6267 6.82703 95.2737 7.44149C94.9384 8.03675 94.6119 8.62241 94.2943 9.19847C93.9589 9.77453 93.6236 10.389 93.2883 11.0419L88.4174 20.1436V23.4559C88.4174 25.3953 88.4262 27.1043 88.4439 28.5828C88.4615 30.0806 88.541 31.2231 88.6821 32.0104H84.7113C84.8348 31.2231 84.9054 30.0806 84.9231 28.5828C84.9584 27.1043 84.976 25.3953 84.976 23.4559V19.9707L80.1845 11.0419C79.8316 10.389 79.4874 9.75532 79.1521 9.14086C78.8168 8.5264 78.4727 7.90234 78.1197 7.26868C77.7491 6.65422 77.3608 6.01095 76.9549 5.33888C76.5314 4.68602 76.0637 3.99475 75.5519 3.26508ZM113.381 17.5513V15.0455C113.24 15.007 113.081 14.9686 112.904 14.9302C112.71 14.8918 112.49 14.8534 112.242 14.815C111.995 14.7574 111.713 14.719 111.395 14.6998C111.06 14.6806 110.663 14.671 110.204 14.671C109.022 14.671 108.042 14.9302 107.266 15.4487C106.472 15.9671 105.836 16.6584 105.36 17.5225C104.901 18.3866 104.565 19.3755 104.354 20.4892C104.16 21.6029 104.063 22.755 104.063 23.9455C104.063 24.6944 104.133 25.3953 104.274 26.0482C104.415 26.6818 104.601 27.2291 104.83 27.6899C105.077 28.1508 105.36 28.5156 105.677 28.7844C105.995 29.0341 106.33 29.1589 106.683 29.1589C107.213 29.1589 107.751 28.938 108.298 28.4964C108.828 28.0356 109.339 27.4595 109.833 26.7682C110.328 26.0578 110.795 25.2705 111.237 24.4064C111.66 23.5231 112.031 22.659 112.348 21.8141C112.684 20.95 112.94 20.134 113.116 19.3659C113.293 18.5978 113.381 17.9929 113.381 17.5513ZM117.908 32.0104H114.731C114.607 31.7031 114.493 31.2711 114.387 30.7142C114.281 30.1574 114.193 29.5717 114.122 28.9572C114.069 28.3236 114.025 27.6995 113.99 27.0851C113.954 26.4706 113.937 25.9425 113.937 25.5009V23.9455C113.566 24.9632 113.134 25.981 112.64 26.9987C112.128 28.0164 111.554 28.9284 110.919 29.7349C110.266 30.5606 109.542 31.2231 108.748 31.7223C107.954 32.2408 107.089 32.5 106.154 32.5C105.395 32.5 104.68 32.3176 104.01 31.9527C103.339 31.5879 102.765 31.0407 102.289 30.311C101.795 29.6005 101.406 28.7076 101.124 27.6323C100.859 26.557 100.727 25.3281 100.727 23.9455C100.727 22.371 100.912 20.8444 101.283 19.3659C101.671 17.8681 102.262 16.5432 103.057 15.3911C103.868 14.2198 104.883 13.2885 106.101 12.5972C107.336 11.8867 108.801 11.5315 110.495 11.5315C111.66 11.5315 112.763 11.6179 113.804 11.7907C114.846 11.9443 115.825 12.1556 116.743 12.4244V21.5837C116.743 24.0608 116.849 26.1442 117.06 27.8339C117.272 29.5237 117.555 30.9158 117.908 32.0104ZM125.584 32.0104H122.249V9.77453C122.249 7.64311 122.24 5.78053 122.223 4.18677C122.187 2.59301 122.108 1.36409 121.984 0.5H125.584V20.1724L132.917 11.9347H137.444L128.496 20.7196L138 32.0104H133.553L125.584 21.7853V32.0104Z" fill="#000573"/>
</svg>
